<?xml version="1.0" encoding="UTF-8"?>
<svg id="Layer_2" data-name="Layer 2" xmlns="http://www.w3.org/2000/svg" viewBox="0 0 218.34 217.77">
  <g id="Layer_1-2" data-name="Layer 1">
    <g>
      <path d="M110.36,191.02c-3.73,13.56-13.87,22.76-27.14,25.62C40.95,225.77-6.86,177.65.82,136.05c2.57-13.94,11.92-24.75,25.57-28.57,15.48-4.33,29.4-12.77,39.11-25.74,14.39-19.23,36.68-16.07,55.76-4.88l33.42-33.84c-.7-4.56.82-7.36,3.74-10.7l-6.19-6.52c-.68-.72-.9-3.27-.39-4.08s3.18-1.08,3.89-.4l6.71,6.49,5.49-6.7-5.33-5.99c-.64-.72-.77-2.85-.4-3.67.45-.99,3.42-.97,4.33-.2l6.09,5.16,5.13-6.27-4.24-4.79c-.67-.76-1.28-2.98-.98-3.87.37-1.06,3.11-1.96,3.92-1.21l5.57,5.13c2.75-3.31,7.58-5.74,11.03-2.62,6.75,6.1,12.83,12.31,19.25,18.84,1.67,1.7,3.53,4.35,3.6,6.41.09,2.61-1.6,4.98-3.63,7.71l5.26,5.58c.78.83,1.07,3.42.53,4.29s-3.24.98-4.08.22l-6.88-6.23-6.05,5.92,6.43,6.6c.71.72.63,3.33.09,4.03-.64.85-3.17,1.03-3.95.26l-7.32-7.17-6.27,6.18,7.53,7.77c.71.73.09,3.14-.66,3.63-.9.59-3.45.37-4.24-.4l-7.15-7.08c-3.69,3.08-7.6,4.03-11.82,4.37l-32.91,32.87c11.14,19.34,14.3,40.68-4.82,55.52-12.68,9.84-21.26,23.14-25.6,38.93ZM207.77,31.24c1.32-1.17,2.14-3.76,1.03-4.86l-19.82-19.7-29.47,33.55c5.72,6.25,10.5,11.1,16.05,16.46.83.8,3.76-.26,4.66-1.05l27.55-24.4ZM124.45,104.6l45.13-45.39-11.3-11.17-45.28,45.34,11.45,11.23ZM132.04,147.75c16.5-12.93,13.59-29.96,4.46-46.62l-8.08,7.72c-2,1.91-6.12,2.13-8.23,0l-11.03-11.09c-6.37-6.4,4.2-11.31,6.83-16.45-13.1-8.9-32.95-11.8-43.89,2.04s-24.88,24.61-41.86,28.98c-15.19,3.91-24.71,16.5-24.19,32.3.2,6.21.72,12.13,3.02,18.27,7.42,19.88,22.72,36,42.33,44.44,20.59,8.87,47.04,5.2,53.2-17.76,4.44-16.54,13.56-30.95,27.45-41.83Z"/>
      <path d="M82.3,109.26c12.08-3.38,22.96,3.18,26.34,14.23,3.37,11.01-3.2,22.86-14.55,26.11-10.58,3.02-22.09-2.85-25.7-13.55s2.09-23.47,13.91-26.78Z"/>
      <path d="M78.76,174.65c.78.78.75,3.26.64,4.17s-3.8,1.3-4.99.11c-9.73-9.73-24.2-24.2-35.61-35.61-1.07-1.07-1.22-3.08-.8-3.93s4.02-1.47,4.71-.77l36.05,36.04Z"/>
    </g>
  </g>
</svg>